<svg width="121" height="16" fill="none" xmlns="http://www.w3.org/2000/svg"><path fill-rule="evenodd" clip-rule="evenodd" d="M7.532 13.544c3.025 0 5.472-2.491 5.472-5.571 0-3.08-2.447-5.572-5.472-5.572-3.024 0-5.47 2.492-5.47 5.572s2.446 5.571 5.47 5.571Zm0-13.242c4.162 0 7.533 3.433 7.533 7.67 0 4.238-3.371 7.672-7.533 7.672C3.372 15.644 0 12.21 0 7.973 0 3.735 3.372.302 7.532.302ZM18.294 6.03v5.356c0 1.55.597 2.335 1.792 2.335 1.213 0 1.811-.785 1.811-2.335V6.03h2.119v9.339h-2.119v-1.06c-.327.765-1.04 1.335-2.293 1.335-1.386 0-2.658-.765-3.159-2.276-.173-.49-.27-1.118-.27-1.923V6.03h2.12ZM30.508 6.03v2.021h-2.311v3.551c0 .785.057 1.295.192 1.55.135.275.385.412.77.412.29 0 .675-.118 1.137-.353l.212-.118v2.217c-.558.216-1.02.334-1.425.334-1.06 0-1.85-.334-2.408-1.02-.405-.491-.597-1.315-.597-2.492V8.05h-.752v-2.02h.752V3.008h2.119V6.03h2.311ZM34.051 12.858c.481.569 1.098.863 1.83.863.77 0 1.406-.275 1.888-.824.482-.57.732-1.295.732-2.178 0-.863-.25-1.589-.732-2.158-.482-.568-1.098-.844-1.869-.844-.75 0-1.348.276-1.83.844-.482.569-.732 1.275-.732 2.12 0 .882.231 1.608.713 2.177ZM38.366.577h2.12v14.792h-2.12v-1.08c-.732.982-1.772 1.355-2.832 1.355-1.252 0-2.292-.471-3.12-1.413-.829-.922-1.234-2.119-1.234-3.55 0-1.414.405-2.57 1.214-3.493.829-.942 1.85-1.412 3.102-1.412 1.06 0 2.138.352 2.87 1.452V.577ZM46.277 13.72c1.734 0 2.794-1.333 2.794-3 0-1.668-1.06-3.002-2.794-3.002-1.733 0-2.774 1.334-2.774 3.001 0 1.668 1.04 3.002 2.774 3.002Zm0-7.944c2.736 0 4.894 2.197 4.894 4.943 0 2.747-2.158 4.925-4.894 4.925-2.735 0-4.874-2.178-4.874-4.925 0-2.746 2.14-4.943 4.874-4.943ZM56.701 13.72c1.734 0 2.794-1.333 2.794-3 0-1.668-1.06-3.002-2.794-3.002s-2.774 1.334-2.774 3.001c0 1.668 1.04 3.002 2.774 3.002Zm0-7.944c2.736 0 4.894 2.197 4.894 4.943 0 2.747-2.158 4.925-4.894 4.925-2.735 0-4.874-2.178-4.874-4.925 0-2.746 2.139-4.943 4.874-4.943ZM62.514 6.03h2.119v.942c.404-.706 1.06-1.196 2.023-1.196.52 0 .924.156 1.175.392v2.236a2.038 2.038 0 0 0-1.272-.431c-1.29 0-1.926.863-1.926 2.51v4.886h-2.12V6.03ZM85.025.577l-5.76 14.792H76.49L70.712.577h2.428L77.8 13.015h.116L82.597.577h2.428ZM87.621 13.72c1.734 0 2.794-1.333 2.794-3 0-1.668-1.06-3.002-2.794-3.002-1.733 0-2.774 1.334-2.774 3.001 0 1.668 1.04 3.002 2.774 3.002Zm0-7.944c2.736 0 4.894 2.197 4.894 4.943 0 2.747-2.158 4.925-4.894 4.925-2.735 0-4.873-2.178-4.873-4.925 0-2.746 2.138-4.943 4.873-4.943Z" fill="#202020"/><path fill-rule="evenodd" clip-rule="evenodd" d="M93.505 15.37h2.12V6.03h-2.12v9.34ZM94.565.772c.81 0 1.445.647 1.445 1.471 0 .824-.636 1.471-1.445 1.471-.81 0-1.445-.647-1.445-1.47 0-.825.636-1.472 1.445-1.472Z" fill="#231F20"/><path fill-rule="evenodd" clip-rule="evenodd" d="M104.167 8.895c-.616-.785-1.329-1.138-2.542-1.138-1.734 0-2.851 1.295-2.851 2.962 0 1.707 1.117 2.943 2.773 2.943 1.214 0 1.869-.373 2.62-1.158v2.434c-.809.568-1.714.705-2.562.705-2.774 0-4.99-2.06-4.99-4.904 0-2.943 2.197-4.983 4.99-4.983.944 0 1.849.176 2.562.686v2.453ZM111.579 9.444c-.289-1.157-1.002-1.726-2.138-1.726-1.002 0-1.869.706-2.12 1.726h4.258Zm2.157 1.766h-6.55c.058.784.309 1.393.732 1.824.444.452 1.195.687 1.869.687.52 0 .963-.098 1.368-.275a4.84 4.84 0 0 0 1.714-1.314v2.413c-.693.57-1.464 1.099-3.371 1.099-1.368 0-2.465-.452-3.294-1.354-.828-.883-1.233-2.08-1.233-3.57 0-1.472.405-2.669 1.194-3.59.81-.903 1.889-1.354 3.217-1.354 1.349 0 2.409.431 3.199 1.314.789.883 1.174 2.08 1.174 3.61l-.019.51ZM120.19 8.738c-.771-.804-1.58-1.06-2.292-1.06-.656 0-1.195.216-1.195.746s.404.745 1.233 1.119c1.734.764 2.832 1.294 2.832 2.962 0 1.844-1.253 3.139-3.217 3.139-1.484 0-2.332-.412-3.025-.981v-2.59c.751 1 1.792 1.59 2.639 1.59.983 0 1.445-.276 1.445-.943 0-.392-.193-.765-.828-1.079l-1.291-.627c-1.137-.55-1.792-1.177-1.792-2.433 0-1.825 1.33-2.805 2.986-2.805 1.31 0 1.985.333 2.505.726v2.236Z" fill="#202020"/></svg>